<svg width="131" height="165" viewBox="0 0 131 165" fill="none" xmlns="http://www.w3.org/2000/svg">
<path d="M69.5001 76.8646H61.4832C61.1026 76.8639 60.7304 76.9762 60.4138 77.1873C60.0971 77.3984 59.8503 77.6988 59.7046 78.0503C59.5589 78.4019 59.5208 78.7888 59.5952 79.162C59.6697 79.5352 59.8532 79.8779 60.1227 80.1467L64.1312 84.1513C64.4915 84.5116 64.9802 84.7139 65.4897 84.7139C65.9993 84.7139 66.488 84.5116 66.8483 84.1513L70.8568 80.1467C71.126 79.8782 71.3095 79.5358 71.3841 79.1629C71.4586 78.7901 71.4209 78.4035 71.2756 78.0521C71.1304 77.7007 70.8841 77.4003 70.5681 77.1889C70.252 76.9775 69.8804 76.8646 69.5001 76.8646ZM44.3539 65.6961C44.3539 64.422 44.86 63.2001 45.761 62.2992C46.6619 61.3982 47.8838 60.8921 49.1579 60.8921C50.432 60.8921 51.654 61.3982 52.5549 62.2992C53.4558 63.2001 53.962 64.422 53.962 65.6961V71.461C53.962 72.7351 53.4558 73.957 52.5549 74.8579C51.654 75.7589 50.432 76.265 49.1579 76.265C47.8838 76.265 46.6619 75.7589 45.761 74.8579C44.86 73.957 44.3539 72.7351 44.3539 71.461V65.6961ZM77.0214 65.6961C77.0214 65.0653 77.1456 64.4406 77.387 63.8577C77.6285 63.2749 77.9823 62.7453 78.4284 62.2992C78.8745 61.8531 79.4041 61.4992 79.987 61.2578C80.5698 61.0164 81.1945 60.8921 81.8254 60.8921C82.4563 60.8921 83.081 61.0164 83.6638 61.2578C84.2467 61.4992 84.7763 61.8531 85.2224 62.2992C85.6685 62.7453 86.0223 63.2749 86.2637 63.8577C86.5052 64.4406 86.6294 65.0653 86.6294 65.6961V71.461C86.6294 72.7351 86.1233 73.957 85.2224 74.8579C84.3214 75.7589 83.0995 76.265 81.8254 76.265C80.5513 76.265 79.3294 75.7589 78.4284 74.8579C77.5275 73.957 77.0214 72.7351 77.0214 71.461V65.6961ZM48.9197 88.033C53.3317 92.3259 59.846 93.1368 65.5532 88.033C70.7146 92.96 78.132 92.4143 82.4864 88.033C82.5172 93.6287 79.1697 104.816 65.5532 104.816C51.9328 104.816 48.789 93.6287 48.9197 88.033ZM105.246 49.4662V33.1055C105.246 32.556 105.089 32.0179 104.793 31.5547C104.498 31.0915 104.076 30.7224 103.578 30.4909C103.079 30.2595 102.525 30.1754 101.98 30.2484C101.436 30.3215 100.923 30.5488 100.503 30.9034L91.9331 38.1325C91.5126 38.4874 91.1733 38.9285 90.938 39.426C90.7028 39.9234 90.577 40.4655 90.5694 41.0157C90.5617 41.5659 90.6723 42.1113 90.8937 42.6151C91.115 43.1189 91.4419 43.5693 91.8524 43.9358L100.442 51.6145C100.857 51.9855 101.37 52.2285 101.92 52.3142C102.47 52.3998 103.032 52.3246 103.54 52.0974C104.048 51.8702 104.48 51.5009 104.782 51.034C105.085 50.5671 105.246 50.0226 105.246 49.4662ZM25.7373 33.1055V49.4662C25.7366 50.0229 25.8971 50.568 26.1995 51.0355C26.5019 51.5029 26.9332 51.8728 27.4413 52.1005C27.9493 52.3281 28.5125 52.4037 29.0626 52.3181C29.6128 52.2326 30.1264 51.9895 30.5413 51.6184L39.131 43.9358C39.5414 43.5693 39.8683 43.1189 40.0897 42.6151C40.311 42.1113 40.4216 41.5659 40.4139 41.0157C40.4063 40.4655 40.2806 39.9234 40.0453 39.426C39.81 38.9285 39.4707 38.4874 39.0502 38.1325L30.4798 30.9034C30.0601 30.5488 29.5477 30.3215 29.003 30.2484C28.4584 30.1754 27.9042 30.2595 27.4058 30.4909C26.9074 30.7224 26.4855 31.0915 26.1899 31.5547C25.8943 32.0179 25.7372 32.556 25.7373 33.1055Z" fill="#2EC4B6"/>
<path d="M96.5526 119.14C106.076 119.14 113.686 111.634 115.185 102.576L116.318 103.106C116.547 103.213 116.794 103.274 117.047 103.285C117.299 103.297 117.551 103.258 117.788 103.172C118.025 103.086 118.243 102.954 118.43 102.784C118.616 102.614 118.767 102.409 118.874 102.18C118.981 101.951 119.042 101.704 119.053 101.452C119.065 101.199 119.026 100.948 118.94 100.71C118.854 100.473 118.722 100.255 118.552 100.068C118.382 99.8821 118.177 99.7312 117.948 99.6242L115.454 98.4635V81.8185L117.948 80.6501C118.177 80.5432 118.382 80.3922 118.552 80.2058C118.722 80.0195 118.854 79.8014 118.94 79.5641C119.026 79.3268 119.065 79.0748 119.053 78.8227C119.042 78.5705 118.981 78.323 118.874 78.0944C118.767 77.8658 118.616 77.6605 118.43 77.4902C118.243 77.3199 118.025 77.188 117.788 77.102C117.551 77.016 117.299 76.9776 117.047 76.9889C116.794 77.0003 116.547 77.0612 116.318 77.1682L115.454 77.5756V23.1362C115.454 14.4813 105.031 10.8533 99.3351 16.5835L85.2651 30.7458H45.7721L31.6828 16.9333C25.9948 11.2722 15.5297 14.8195 15.5297 23.509V77.5717L14.6611 77.1643C14.4319 77.053 14.1828 76.9884 13.9284 76.9742C13.6739 76.96 13.4192 76.9966 13.1791 77.0818C12.9389 77.167 12.7181 77.2992 12.5295 77.4705C12.3409 77.6419 12.1882 77.849 12.0804 78.0799C11.9726 78.3108 11.9118 78.5609 11.9015 78.8155C11.8913 79.0701 11.9318 79.3242 12.0206 79.563C12.1095 79.8019 12.245 80.0206 12.4192 80.2066C12.5934 80.3926 12.8029 80.542 13.0354 80.6463L15.5297 81.8146V98.4558L13.0316 99.6242C12.803 99.7312 12.5976 99.8821 12.4274 100.068C12.2571 100.255 12.1252 100.473 12.0392 100.71C11.9532 100.948 11.9147 101.199 11.9261 101.452C11.9375 101.704 11.9984 101.951 12.1054 102.18C12.2124 102.409 12.3633 102.614 12.5497 102.784C12.736 102.954 12.9541 103.086 13.1914 103.172C13.4287 103.258 13.6807 103.297 13.9329 103.285C14.185 103.274 14.4325 103.213 14.6611 103.106L15.7411 102.603C17.1054 111.846 24.8803 119.14 34.4307 119.14H96.5526ZM106.722 21.622C107.037 21.7281 107.309 21.9333 107.497 22.207C107.686 22.4807 107.78 22.808 107.767 23.1401V81.1651L101.426 84.1321C101.197 84.2391 100.992 84.3901 100.822 84.5764C100.651 84.7628 100.519 84.9808 100.433 85.2182C100.347 85.4555 100.309 85.7074 100.32 85.9596C100.332 86.2118 100.393 86.4592 100.5 86.6879C100.607 86.9165 100.758 87.1218 100.944 87.2921C101.13 87.4624 101.348 87.5943 101.586 87.6803C101.823 87.7663 102.075 87.8047 102.327 87.7934C102.579 87.782 102.827 87.7211 103.055 87.6141L107.767 85.4081V94.8624L103.055 92.6602C102.826 92.5428 102.575 92.4728 102.317 92.4543C102.06 92.4359 101.802 92.4695 101.558 92.5531C101.314 92.6367 101.089 92.7685 100.897 92.9408C100.705 93.1131 100.55 93.3222 100.44 93.5558C100.331 93.7894 100.27 94.0426 100.26 94.3004C100.251 94.5582 100.293 94.8152 100.385 95.0562C100.477 95.2972 100.617 95.5172 100.795 95.7031C100.974 95.8891 101.189 96.0371 101.426 96.1384L107.767 99.1053V99.3129C107.767 106.019 102.464 111.454 96.5526 111.454H34.4307C28.3968 111.454 23.2161 106.284 23.2161 99.701V99.1053L29.5575 96.1384C30.001 95.9115 30.339 95.5214 30.5004 95.0501C30.6618 94.5789 30.6339 94.0633 30.4226 93.6123C30.2112 93.1612 29.833 92.8098 29.3676 92.6322C28.9022 92.4546 28.3861 92.4647 27.9279 92.6602L23.2161 94.8624V85.4081L27.9279 87.6141C28.1572 87.7254 28.4062 87.79 28.6607 87.8042C28.9151 87.8184 29.1698 87.7818 29.41 87.6966C29.6502 87.6114 29.871 87.4792 30.0596 87.3079C30.2482 87.1365 30.4009 86.9294 30.5087 86.6985C30.6165 86.4676 30.6773 86.2176 30.6875 85.9629C30.6978 85.7083 30.6573 85.4542 30.5684 85.2154C30.4796 84.9765 30.3441 84.7578 30.1698 84.5718C29.9956 84.3858 29.7862 84.2364 29.5536 84.1321L23.2161 81.1651V23.509C23.2056 23.1764 23.3033 22.8493 23.4946 22.5769C23.6859 22.3046 23.9604 22.1016 24.2769 21.9986C24.6085 21.8565 24.9751 21.8171 25.3294 21.8856C25.6836 21.9541 26.0091 22.1274 26.2638 22.3829L42.6321 38.4323H88.4626L104.789 22.0025C105.035 21.7512 105.351 21.5804 105.696 21.5125C106.041 21.4446 106.399 21.4827 106.722 21.622Z" fill="#2EC4B6"/>
<g filter="url(#filter0_d_82_615)">
<path d="M4 132.983C4 127.46 8.47715 122.983 14 122.983H116.983C122.506 122.983 126.983 127.46 126.983 132.983V137C126.983 148.046 118.029 157 106.983 157H24C12.9543 157 4 148.046 4 137V132.983Z" fill="#011627"/>
<path d="M4.5 132.983C4.5 127.737 8.7533 123.483 14 123.483H116.983C122.23 123.483 126.483 127.737 126.483 132.983V137C126.483 147.77 117.753 156.5 106.983 156.5H24C13.2304 156.5 4.5 147.77 4.5 137V132.983Z" stroke="black"/>
</g>
<path d="M39.145 137.605C39.145 138.475 38.845 139.2 38.245 139.78C37.655 140.35 36.75 140.635 35.53 140.635H33.52V145H32.155V134.545H35.53C36.71 134.545 37.605 134.83 38.215 135.4C38.835 135.97 39.145 136.705 39.145 137.605ZM35.53 139.51C36.29 139.51 36.85 139.345 37.21 139.015C37.57 138.685 37.75 138.215 37.75 137.605C37.75 136.315 37.01 135.67 35.53 135.67H33.52V139.51H35.53ZM42.2065 135.655V139.15H46.0165V140.275H42.2065V143.875H46.4665V145H40.8415V134.53H46.4665V135.655H42.2065ZM54.967 134.545V135.655H52.117V145H50.752V135.655H47.887V134.545H54.967ZM59.9622 145.105C59.2722 145.105 58.6522 144.985 58.1022 144.745C57.5622 144.495 57.1372 144.155 56.8272 143.725C56.5172 143.285 56.3572 142.78 56.3472 142.21H57.8022C57.8522 142.7 58.0522 143.115 58.4022 143.455C58.7622 143.785 59.2822 143.95 59.9622 143.95C60.6122 143.95 61.1222 143.79 61.4922 143.47C61.8722 143.14 62.0622 142.72 62.0622 142.21C62.0622 141.81 61.9522 141.485 61.7322 141.235C61.5122 140.985 61.2372 140.795 60.9072 140.665C60.5772 140.535 60.1322 140.395 59.5722 140.245C58.8822 140.065 58.3272 139.885 57.9072 139.705C57.4972 139.525 57.1422 139.245 56.8422 138.865C56.5522 138.475 56.4072 137.955 56.4072 137.305C56.4072 136.735 56.5522 136.23 56.8422 135.79C57.1322 135.35 57.5372 135.01 58.0572 134.77C58.5872 134.53 59.1922 134.41 59.8722 134.41C60.8522 134.41 61.6522 134.655 62.2722 135.145C62.9022 135.635 63.2572 136.285 63.3372 137.095H61.8372C61.7872 136.695 61.5772 136.345 61.2072 136.045C60.8372 135.735 60.3472 135.58 59.7372 135.58C59.1672 135.58 58.7022 135.73 58.3422 136.03C57.9822 136.32 57.8022 136.73 57.8022 137.26C57.8022 137.64 57.9072 137.95 58.1172 138.19C58.3372 138.43 58.6022 138.615 58.9122 138.745C59.2322 138.865 59.6772 139.005 60.2472 139.165C60.9372 139.355 61.4922 139.545 61.9122 139.735C62.3322 139.915 62.6922 140.2 62.9922 140.59C63.2922 140.97 63.4422 141.49 63.4422 142.15C63.4422 142.66 63.3072 143.14 63.0372 143.59C62.7672 144.04 62.3672 144.405 61.8372 144.685C61.3072 144.965 60.6822 145.105 59.9622 145.105ZM75.6299 142.675H71.0699L70.2299 145H68.7899L72.5699 134.605H74.1449L77.9099 145H76.4699L75.6299 142.675ZM75.2399 141.565L73.3499 136.285L71.4599 141.565H75.2399ZM86.5473 137.605C86.5473 138.475 86.2473 139.2 85.6473 139.78C85.0573 140.35 84.1523 140.635 82.9323 140.635H80.9223V145H79.5573V134.545H82.9323C84.1123 134.545 85.0073 134.83 85.6173 135.4C86.2373 135.97 86.5473 136.705 86.5473 137.605ZM82.9323 139.51C83.6923 139.51 84.2523 139.345 84.6123 139.015C84.9723 138.685 85.1523 138.215 85.1523 137.605C85.1523 136.315 84.4123 135.67 82.9323 135.67H80.9223V139.51H82.9323ZM95.2339 137.605C95.2339 138.475 94.9339 139.2 94.3339 139.78C93.7439 140.35 92.8389 140.635 91.6189 140.635H89.6089V145H88.2439V134.545H91.6189C92.7989 134.545 93.6939 134.83 94.3039 135.4C94.9239 135.97 95.2339 136.705 95.2339 137.605ZM91.6189 139.51C92.3789 139.51 92.9389 139.345 93.2989 139.015C93.6589 138.685 93.8389 138.215 93.8389 137.605C93.8389 136.315 93.0989 135.67 91.6189 135.67H89.6089V139.51H91.6189Z" fill="#FDFFFC"/>
<defs>
<filter id="filter0_d_82_615" x="0" y="122.983" width="130.983" height="42.0167" filterUnits="userSpaceOnUse" color-interpolation-filters="sRGB">
<feFlood flood-opacity="0" result="BackgroundImageFix"/>
<feColorMatrix in="SourceAlpha" type="matrix" values="0 0 0 0 0 0 0 0 0 0 0 0 0 0 0 0 0 0 127 0" result="hardAlpha"/>
<feOffset dy="4"/>
<feGaussianBlur stdDeviation="2"/>
<feComposite in2="hardAlpha" operator="out"/>
<feColorMatrix type="matrix" values="0 0 0 0 0 0 0 0 0 0 0 0 0 0 0 0 0 0 0.25 0"/>
<feBlend mode="normal" in2="BackgroundImageFix" result="effect1_dropShadow_82_615"/>
<feBlend mode="normal" in="SourceGraphic" in2="effect1_dropShadow_82_615" result="shape"/>
</filter>
</defs>
</svg>
