<svg width="60" height="60" viewBox="0 0 60 60" fill="none" xmlns="http://www.w3.org/2000/svg">
<circle cx="30" cy="30" r="30" fill="#FDFFFC"/>
<path d="M20.8709 7.31069C23.8516 6.88176 27.0092 10.1366 27.9185 14.6277C28.8279 19.0936 27.186 23.0801 24.2053 23.5343C21.2498 23.9884 18.067 20.7336 17.1324 16.2425C16.1978 11.7766 17.8902 7.79008 20.8709 7.31069ZM38.932 7.31069C41.938 7.79008 43.6052 11.7766 42.7211 16.2425C41.7612 20.7336 38.6036 23.9884 35.6229 23.5343C32.617 23.0801 30.975 19.0936 31.9097 14.6277C32.819 10.1366 35.9766 6.88176 38.932 7.31069ZM7.35669 18.917C10.2364 17.6807 14.1517 19.9262 16.1978 23.8371C18.1176 27.8236 17.4608 32.0119 14.6064 33.2483C11.752 34.4846 7.8619 32.2642 5.86634 28.303C3.87078 24.3417 4.57806 20.1281 7.35669 18.917ZM52.8252 18.917C55.6038 20.1281 56.3111 24.3417 54.3155 28.303C52.32 32.2642 48.4299 34.4846 45.5755 33.2483C42.7211 32.0119 42.0643 27.8236 43.9841 23.8371C46.0302 19.9262 49.9455 17.6807 52.8252 18.917ZM48.6067 46.1161C48.7077 48.4878 46.889 51.1119 44.7166 52.0959C40.195 54.1648 34.8399 49.8755 29.8131 49.8755C24.7863 49.8755 19.3806 54.3415 14.9348 52.0959C12.4087 50.8596 10.6658 47.5795 10.9942 44.8546C11.4489 41.0951 15.9704 39.0766 18.648 36.3264C22.2097 32.7689 24.7358 26.0826 29.8131 26.0826C34.8651 26.0826 37.5427 32.6679 40.9528 36.3264C43.7567 39.4046 48.4299 42.0034 48.6067 46.1161Z" fill="#2EC4B6"/>
</svg>
