<svg width="330" height="330" viewBox="0 0 330 330" fill="none" xmlns="http://www.w3.org/2000/svg">
<ellipse cx="165" cy="165" rx="165" ry="165" fill="#BEBDBD"/>
<ellipse cx="164.5" cy="115.5" rx="64.5" ry="64.5" fill="#737373"/>
<path fill-rule="evenodd" clip-rule="evenodd" d="M29.376 259C59.1709 216.093 108.805 188 165 188C221.195 188 270.829 216.093 300.624 259C270.829 301.907 221.195 330 165 330C108.805 330 59.1709 301.907 29.376 259Z" fill="#737373"/>
<path d="M85.0526 264.545H87.1662V276.102C87.1662 277.295 86.8849 278.361 86.3224 279.298C85.7656 280.23 84.9787 280.966 83.9616 281.506C82.9446 282.04 81.7514 282.307 80.3821 282.307C79.0128 282.307 77.8196 282.04 76.8026 281.506C75.7855 280.966 74.9957 280.23 74.4332 279.298C73.8764 278.361 73.598 277.295 73.598 276.102V264.545H75.7116V275.932C75.7116 276.784 75.8991 277.543 76.2741 278.207C76.6491 278.866 77.1832 279.386 77.8764 279.767C78.5753 280.142 79.4105 280.33 80.3821 280.33C81.3537 280.33 82.1889 280.142 82.8878 279.767C83.5866 279.386 84.1207 278.866 84.4901 278.207C84.8651 277.543 85.0526 276.784 85.0526 275.932V264.545ZM91.3871 282V264.545H97.2848C98.6541 264.545 99.7734 264.793 100.643 265.287C101.518 265.776 102.165 266.438 102.586 267.273C103.006 268.108 103.217 269.04 103.217 270.068C103.217 271.097 103.006 272.031 102.586 272.872C102.171 273.713 101.529 274.384 100.66 274.884C99.7905 275.378 98.6768 275.625 97.3189 275.625H93.0916V273.75H97.2507C98.1882 273.75 98.9411 273.588 99.5092 273.264C100.077 272.94 100.489 272.503 100.745 271.952C101.006 271.395 101.137 270.767 101.137 270.068C101.137 269.369 101.006 268.744 100.745 268.193C100.489 267.642 100.075 267.21 99.5007 266.898C98.9268 266.58 98.1655 266.42 97.2166 266.42H93.5007V282H91.3871ZM106.621 282V264.545H108.735V280.125H116.849V282H106.621ZM134.169 273.273C134.169 275.114 133.837 276.705 133.172 278.045C132.507 279.386 131.595 280.42 130.436 281.148C129.277 281.875 127.953 282.239 126.464 282.239C124.976 282.239 123.652 281.875 122.493 281.148C121.334 280.42 120.422 279.386 119.757 278.045C119.092 276.705 118.76 275.114 118.76 273.273C118.76 271.432 119.092 269.841 119.757 268.5C120.422 267.159 121.334 266.125 122.493 265.398C123.652 264.67 124.976 264.307 126.464 264.307C127.953 264.307 129.277 264.67 130.436 265.398C131.595 266.125 132.507 267.159 133.172 268.5C133.837 269.841 134.169 271.432 134.169 273.273ZM132.124 273.273C132.124 271.761 131.871 270.486 131.365 269.446C130.865 268.406 130.186 267.619 129.328 267.085C128.476 266.551 127.521 266.284 126.464 266.284C125.408 266.284 124.45 266.551 123.592 267.085C122.74 267.619 122.061 268.406 121.555 269.446C121.055 270.486 120.805 271.761 120.805 273.273C120.805 274.784 121.055 276.06 121.555 277.099C122.061 278.139 122.74 278.926 123.592 279.46C124.45 279.994 125.408 280.261 126.464 280.261C127.521 280.261 128.476 279.994 129.328 279.46C130.186 278.926 130.865 278.139 131.365 277.099C131.871 276.06 132.124 274.784 132.124 273.273ZM137.619 282H135.403L141.812 264.545H143.994L150.403 282H148.187L142.971 267.307H142.835L137.619 282ZM138.437 275.182H147.369V277.057H138.437V275.182ZM158.508 282H153.121V264.545H158.746C160.44 264.545 161.888 264.895 163.093 265.594C164.298 266.287 165.221 267.284 165.863 268.585C166.505 269.881 166.826 271.432 166.826 273.239C166.826 275.057 166.502 276.622 165.854 277.935C165.207 279.241 164.263 280.247 163.025 280.952C161.786 281.651 160.281 282 158.508 282ZM155.235 280.125H158.371C159.815 280.125 161.011 279.847 161.96 279.29C162.908 278.733 163.616 277.94 164.082 276.912C164.548 275.884 164.781 274.659 164.781 273.239C164.781 271.83 164.55 270.616 164.09 269.599C163.63 268.577 162.942 267.793 162.028 267.247C161.113 266.696 159.974 266.42 158.61 266.42H155.235V280.125ZM177.121 282V264.545H183.019C184.388 264.545 185.508 264.793 186.377 265.287C187.252 265.776 187.9 266.438 188.32 267.273C188.741 268.108 188.951 269.04 188.951 270.068C188.951 271.097 188.741 272.031 188.32 272.872C187.906 273.713 187.263 274.384 186.394 274.884C185.525 275.378 184.411 275.625 183.053 275.625H178.826V273.75H182.985C183.923 273.75 184.675 273.588 185.244 273.264C185.812 272.94 186.224 272.503 186.479 271.952C186.741 271.395 186.871 270.767 186.871 270.068C186.871 269.369 186.741 268.744 186.479 268.193C186.224 267.642 185.809 267.21 185.235 266.898C184.661 266.58 183.9 266.42 182.951 266.42H179.235V282H177.121ZM192.356 282V264.545H194.469V272.318H203.776V264.545H205.89V282H203.776V274.193H194.469V282H192.356ZM224.849 273.273C224.849 275.114 224.516 276.705 223.852 278.045C223.187 279.386 222.275 280.42 221.116 281.148C219.957 281.875 218.633 282.239 217.144 282.239C215.656 282.239 214.332 281.875 213.173 281.148C212.013 280.42 211.102 279.386 210.437 278.045C209.772 276.705 209.44 275.114 209.44 273.273C209.44 271.432 209.772 269.841 210.437 268.5C211.102 267.159 212.013 266.125 213.173 265.398C214.332 264.67 215.656 264.307 217.144 264.307C218.633 264.307 219.957 264.67 221.116 265.398C222.275 266.125 223.187 267.159 223.852 268.5C224.516 269.841 224.849 271.432 224.849 273.273ZM222.803 273.273C222.803 271.761 222.55 270.486 222.045 269.446C221.545 268.406 220.866 267.619 220.008 267.085C219.156 266.551 218.201 266.284 217.144 266.284C216.087 266.284 215.13 266.551 214.272 267.085C213.42 267.619 212.741 268.406 212.235 269.446C211.735 270.486 211.485 271.761 211.485 273.273C211.485 274.784 211.735 276.06 212.235 277.099C212.741 278.139 213.42 278.926 214.272 279.46C215.13 279.994 216.087 280.261 217.144 280.261C218.201 280.261 219.156 279.994 220.008 279.46C220.866 278.926 221.545 278.139 222.045 277.099C222.55 276.06 222.803 274.784 222.803 273.273ZM226.722 266.42V264.545H239.812V266.42H234.324V282H232.21V266.42H226.722ZM257.075 273.273C257.075 275.114 256.743 276.705 256.078 278.045C255.413 279.386 254.501 280.42 253.342 281.148C252.183 281.875 250.859 282.239 249.371 282.239C247.882 282.239 246.558 281.875 245.399 281.148C244.24 280.42 243.328 279.386 242.663 278.045C241.999 276.705 241.666 275.114 241.666 273.273C241.666 271.432 241.999 269.841 242.663 268.5C243.328 267.159 244.24 266.125 245.399 265.398C246.558 264.67 247.882 264.307 249.371 264.307C250.859 264.307 252.183 264.67 253.342 265.398C254.501 266.125 255.413 267.159 256.078 268.5C256.743 269.841 257.075 271.432 257.075 273.273ZM255.03 273.273C255.03 271.761 254.777 270.486 254.271 269.446C253.771 268.406 253.092 267.619 252.234 267.085C251.382 266.551 250.428 266.284 249.371 266.284C248.314 266.284 247.357 266.551 246.499 267.085C245.646 267.619 244.967 268.406 244.462 269.446C243.962 270.486 243.712 271.761 243.712 273.273C243.712 274.784 243.962 276.06 244.462 277.099C244.967 278.139 245.646 278.926 246.499 279.46C247.357 279.994 248.314 280.261 249.371 280.261C250.428 280.261 251.382 279.994 252.234 279.46C253.092 278.926 253.771 278.139 254.271 277.099C254.777 276.06 255.03 274.784 255.03 273.273Z" fill="#011627"/>
</svg>
