<svg width="330" height="330" viewBox="0 0 330 330" fill="none" xmlns="http://www.w3.org/2000/svg">
<circle cx="164.098" cy="165" r="148.77" fill="url(#paint0_linear_210_6)"/>
<path d="M118.827 52.4833C133.608 50.3563 149.267 66.4969 153.776 88.7685C158.286 110.915 150.144 130.684 135.362 132.936C120.706 135.189 104.923 119.048 100.288 96.7763C95.6529 74.6298 104.046 54.8606 118.827 52.4833ZM208.392 52.4833C223.299 54.8606 231.567 74.6298 227.182 96.7763C222.422 119.048 206.764 135.189 191.982 132.936C177.076 130.684 168.934 110.915 173.568 88.7685C178.078 66.4969 193.736 50.3563 208.392 52.4833ZM51.8097 110.039C66.0901 103.908 85.5063 115.044 95.6529 134.438C105.173 154.207 101.916 174.977 87.7611 181.108C73.606 187.239 54.3151 176.228 44.419 156.584C34.523 136.94 38.0305 116.045 51.8097 110.039ZM277.289 110.039C291.068 116.045 294.575 136.94 284.679 156.584C274.783 176.228 255.492 187.239 241.337 181.108C227.182 174.977 223.925 154.207 233.446 134.438C243.592 115.044 263.008 103.908 277.289 110.039ZM256.369 244.92C256.87 256.681 247.851 269.694 237.078 274.574C214.656 284.834 188.099 263.563 163.171 263.563C138.243 263.563 111.436 285.71 89.3896 274.574C76.8629 268.443 68.2196 252.177 69.848 238.664C72.1028 220.021 94.5255 210.011 107.804 196.373C125.466 178.731 137.993 145.574 163.171 145.574C188.224 145.574 201.503 178.23 218.414 196.373C232.318 211.638 255.492 224.525 256.369 244.92Z" fill="url(#paint1_linear_210_6)" fill-opacity="0.6"/>
<path d="M95.5682 260.545H97.6818V272.102C97.6818 273.295 97.4006 274.361 96.8381 275.298C96.2813 276.23 95.4943 276.966 94.4773 277.506C93.4602 278.04 92.267 278.307 90.8977 278.307C89.5284 278.307 88.3352 278.04 87.3182 277.506C86.3011 276.966 85.5114 276.23 84.9489 275.298C84.392 274.361 84.1136 273.295 84.1136 272.102V260.545H86.2273V271.932C86.2273 272.784 86.4148 273.543 86.7898 274.207C87.1648 274.866 87.6989 275.386 88.392 275.767C89.0909 276.142 89.9261 276.33 90.8977 276.33C91.8693 276.33 92.7045 276.142 93.4034 275.767C94.1023 275.386 94.6364 274.866 95.0057 274.207C95.3807 273.543 95.5682 272.784 95.5682 271.932V260.545ZM101.63 282.909V264.909H103.573V266.989H103.812C103.96 266.761 104.164 266.472 104.425 266.119C104.692 265.761 105.073 265.443 105.567 265.165C106.067 264.881 106.744 264.739 107.596 264.739C108.698 264.739 109.67 265.014 110.511 265.565C111.352 266.116 112.008 266.898 112.479 267.909C112.951 268.92 113.187 270.114 113.187 271.489C113.187 272.875 112.951 274.077 112.479 275.094C112.008 276.105 111.354 276.889 110.519 277.446C109.684 277.997 108.721 278.273 107.63 278.273C106.789 278.273 106.116 278.134 105.61 277.855C105.104 277.571 104.715 277.25 104.442 276.892C104.17 276.528 103.96 276.227 103.812 275.989H103.641V282.909H101.63ZM103.607 271.455C103.607 272.443 103.752 273.315 104.042 274.071C104.332 274.821 104.755 275.409 105.312 275.835C105.869 276.256 106.55 276.466 107.357 276.466C108.198 276.466 108.9 276.244 109.462 275.801C110.031 275.352 110.457 274.75 110.741 273.994C111.031 273.233 111.175 272.386 111.175 271.455C111.175 270.534 111.033 269.705 110.749 268.966C110.471 268.222 110.048 267.634 109.479 267.202C108.917 266.764 108.21 266.545 107.357 266.545C106.539 266.545 105.852 266.753 105.295 267.168C104.738 267.577 104.317 268.151 104.033 268.889C103.749 269.622 103.607 270.477 103.607 271.455ZM118.266 260.545V278H116.255V260.545H118.266ZM127.268 278.273C126.087 278.273 125.05 277.991 124.158 277.429C123.271 276.866 122.578 276.08 122.078 275.068C121.584 274.057 121.337 272.875 121.337 271.523C121.337 270.159 121.584 268.969 122.078 267.952C122.578 266.935 123.271 266.145 124.158 265.582C125.05 265.02 126.087 264.739 127.268 264.739C128.45 264.739 129.484 265.02 130.371 265.582C131.263 266.145 131.956 266.935 132.45 267.952C132.95 268.969 133.2 270.159 133.2 271.523C133.2 272.875 132.95 274.057 132.45 275.068C131.956 276.08 131.263 276.866 130.371 277.429C129.484 277.991 128.45 278.273 127.268 278.273ZM127.268 276.466C128.166 276.466 128.905 276.236 129.484 275.776C130.064 275.315 130.493 274.71 130.771 273.96C131.05 273.21 131.189 272.398 131.189 271.523C131.189 270.648 131.05 269.832 130.771 269.077C130.493 268.321 130.064 267.71 129.484 267.244C128.905 266.778 128.166 266.545 127.268 266.545C126.371 266.545 125.632 266.778 125.053 267.244C124.473 267.71 124.044 268.321 123.766 269.077C123.487 269.832 123.348 270.648 123.348 271.523C123.348 272.398 123.487 273.21 123.766 273.96C124.044 274.71 124.473 275.315 125.053 275.776C125.632 276.236 126.371 276.466 127.268 276.466ZM140.123 278.307C139.293 278.307 138.54 278.151 137.864 277.838C137.188 277.52 136.651 277.062 136.254 276.466C135.856 275.864 135.657 275.136 135.657 274.284C135.657 273.534 135.805 272.926 136.1 272.46C136.396 271.989 136.79 271.619 137.285 271.352C137.779 271.085 138.325 270.886 138.921 270.756C139.523 270.619 140.129 270.511 140.737 270.432C141.532 270.33 142.177 270.253 142.671 270.202C143.171 270.145 143.535 270.051 143.762 269.92C143.995 269.79 144.112 269.562 144.112 269.239V269.17C144.112 268.33 143.881 267.676 143.421 267.21C142.967 266.744 142.276 266.511 141.35 266.511C140.39 266.511 139.637 266.722 139.092 267.142C138.546 267.562 138.163 268.011 137.941 268.489L136.032 267.807C136.373 267.011 136.827 266.392 137.396 265.949C137.969 265.5 138.594 265.187 139.271 265.011C139.952 264.83 140.623 264.739 141.282 264.739C141.702 264.739 142.185 264.79 142.731 264.892C143.282 264.989 143.813 265.19 144.325 265.497C144.842 265.804 145.271 266.267 145.612 266.886C145.952 267.506 146.123 268.335 146.123 269.375V278H144.112V276.227H144.009C143.873 276.511 143.646 276.815 143.327 277.139C143.009 277.463 142.586 277.739 142.058 277.966C141.529 278.193 140.884 278.307 140.123 278.307ZM140.43 276.5C141.225 276.5 141.896 276.344 142.441 276.031C142.992 275.719 143.407 275.315 143.685 274.821C143.969 274.327 144.112 273.807 144.112 273.261V271.42C144.026 271.523 143.839 271.616 143.549 271.702C143.265 271.781 142.935 271.852 142.56 271.915C142.191 271.972 141.83 272.023 141.478 272.068C141.131 272.108 140.85 272.142 140.634 272.17C140.112 272.239 139.623 272.349 139.168 272.503C138.719 272.651 138.356 272.875 138.077 273.176C137.805 273.472 137.668 273.875 137.668 274.386C137.668 275.085 137.927 275.614 138.444 275.972C138.967 276.324 139.629 276.5 140.43 276.5ZM154.737 278.273C153.646 278.273 152.683 277.997 151.848 277.446C151.013 276.889 150.359 276.105 149.888 275.094C149.416 274.077 149.18 272.875 149.18 271.489C149.18 270.114 149.416 268.92 149.888 267.909C150.359 266.898 151.016 266.116 151.857 265.565C152.697 265.014 153.669 264.739 154.771 264.739C155.624 264.739 156.297 264.881 156.791 265.165C157.291 265.443 157.672 265.761 157.933 266.119C158.2 266.472 158.408 266.761 158.555 266.989H158.726V260.545H160.737V278H158.794V275.989H158.555C158.408 276.227 158.197 276.528 157.925 276.892C157.652 277.25 157.263 277.571 156.757 277.855C156.251 278.134 155.578 278.273 154.737 278.273ZM155.01 276.466C155.817 276.466 156.499 276.256 157.055 275.835C157.612 275.409 158.036 274.821 158.325 274.071C158.615 273.315 158.76 272.443 158.76 271.455C158.76 270.477 158.618 269.622 158.334 268.889C158.05 268.151 157.629 267.577 157.072 267.168C156.516 266.753 155.828 266.545 155.01 266.545C154.158 266.545 153.447 266.764 152.879 267.202C152.317 267.634 151.893 268.222 151.609 268.966C151.331 269.705 151.192 270.534 151.192 271.455C151.192 272.386 151.334 273.233 151.618 273.994C151.908 274.75 152.334 275.352 152.896 275.801C153.464 276.244 154.169 276.466 155.01 276.466ZM171.45 282.909V264.909H173.393V266.989H173.632C173.78 266.761 173.984 266.472 174.246 266.119C174.513 265.761 174.893 265.443 175.388 265.165C175.888 264.881 176.564 264.739 177.416 264.739C178.518 264.739 179.49 265.014 180.331 265.565C181.172 266.116 181.828 266.898 182.3 267.909C182.771 268.92 183.007 270.114 183.007 271.489C183.007 272.875 182.771 274.077 182.3 275.094C181.828 276.105 181.175 276.889 180.339 277.446C179.504 277.997 178.541 278.273 177.45 278.273C176.609 278.273 175.936 278.134 175.43 277.855C174.925 277.571 174.536 277.25 174.263 276.892C173.99 276.528 173.78 276.227 173.632 275.989H173.462V282.909H171.45ZM173.428 271.455C173.428 272.443 173.572 273.315 173.862 274.071C174.152 274.821 174.575 275.409 175.132 275.835C175.689 276.256 176.371 276.466 177.178 276.466C178.018 276.466 178.72 276.244 179.283 275.801C179.851 275.352 180.277 274.75 180.561 273.994C180.851 273.233 180.996 272.386 180.996 271.455C180.996 270.534 180.854 269.705 180.57 268.966C180.291 268.222 179.868 267.634 179.3 267.202C178.737 266.764 178.03 266.545 177.178 266.545C176.359 266.545 175.672 266.753 175.115 267.168C174.558 267.577 174.138 268.151 173.854 268.889C173.57 269.622 173.428 270.477 173.428 271.455ZM188.087 270.125V278H186.075V260.545H188.087V266.955H188.257C188.564 266.278 189.024 265.741 189.638 265.344C190.257 264.94 191.081 264.739 192.109 264.739C193.001 264.739 193.783 264.918 194.453 265.276C195.124 265.628 195.643 266.17 196.013 266.903C196.388 267.631 196.575 268.557 196.575 269.682V278H194.564V269.818C194.564 268.778 194.294 267.974 193.754 267.406C193.22 266.832 192.479 266.545 191.53 266.545C190.871 266.545 190.28 266.685 189.757 266.963C189.24 267.241 188.831 267.648 188.53 268.182C188.234 268.716 188.087 269.364 188.087 270.125ZM205.573 278.273C204.391 278.273 203.354 277.991 202.462 277.429C201.576 276.866 200.883 276.08 200.383 275.068C199.888 274.057 199.641 272.875 199.641 271.523C199.641 270.159 199.888 268.969 200.383 267.952C200.883 266.935 201.576 266.145 202.462 265.582C203.354 265.02 204.391 264.739 205.573 264.739C206.755 264.739 207.789 265.02 208.675 265.582C209.567 266.145 210.261 266.935 210.755 267.952C211.255 268.969 211.505 270.159 211.505 271.523C211.505 272.875 211.255 274.057 210.755 275.068C210.261 276.08 209.567 276.866 208.675 277.429C207.789 277.991 206.755 278.273 205.573 278.273ZM205.573 276.466C206.471 276.466 207.21 276.236 207.789 275.776C208.369 275.315 208.798 274.71 209.076 273.96C209.354 273.21 209.494 272.398 209.494 271.523C209.494 270.648 209.354 269.832 209.076 269.077C208.798 268.321 208.369 267.71 207.789 267.244C207.21 266.778 206.471 266.545 205.573 266.545C204.675 266.545 203.937 266.778 203.357 267.244C202.778 267.71 202.349 268.321 202.07 269.077C201.792 269.832 201.653 270.648 201.653 271.523C201.653 272.398 201.792 273.21 202.07 273.96C202.349 274.71 202.778 275.315 203.357 275.776C203.937 276.236 204.675 276.466 205.573 276.466ZM220.268 264.909V266.614H213.484V264.909H220.268ZM215.462 261.773H217.473V274.25C217.473 274.818 217.555 275.244 217.72 275.528C217.891 275.807 218.107 275.994 218.368 276.091C218.635 276.182 218.916 276.227 219.212 276.227C219.433 276.227 219.615 276.216 219.757 276.193C219.899 276.165 220.013 276.142 220.098 276.125L220.507 277.932C220.371 277.983 220.18 278.034 219.936 278.085C219.692 278.142 219.382 278.17 219.007 278.17C218.439 278.17 217.882 278.048 217.337 277.804C216.797 277.56 216.348 277.188 215.99 276.688C215.638 276.188 215.462 275.557 215.462 274.795V261.773ZM228.472 278.273C227.29 278.273 226.253 277.991 225.361 277.429C224.474 276.866 223.781 276.08 223.281 275.068C222.787 274.057 222.54 272.875 222.54 271.523C222.54 270.159 222.787 268.969 223.281 267.952C223.781 266.935 224.474 266.145 225.361 265.582C226.253 265.02 227.29 264.739 228.472 264.739C229.653 264.739 230.688 265.02 231.574 265.582C232.466 266.145 233.159 266.935 233.653 267.952C234.153 268.969 234.403 270.159 234.403 271.523C234.403 272.875 234.153 274.057 233.653 275.068C233.159 276.08 232.466 276.866 231.574 277.429C230.688 277.991 229.653 278.273 228.472 278.273ZM228.472 276.466C229.369 276.466 230.108 276.236 230.688 275.776C231.267 275.315 231.696 274.71 231.974 273.96C232.253 273.21 232.392 272.398 232.392 271.523C232.392 270.648 232.253 269.832 231.974 269.077C231.696 268.321 231.267 267.71 230.688 267.244C230.108 266.778 229.369 266.545 228.472 266.545C227.574 266.545 226.835 266.778 226.256 267.244C225.676 267.71 225.247 268.321 224.969 269.077C224.69 269.832 224.551 270.648 224.551 271.523C224.551 272.398 224.69 273.21 224.969 273.96C225.247 274.71 225.676 275.315 226.256 275.776C226.835 276.236 227.574 276.466 228.472 276.466Z" fill="#FDFFFC"/>
<defs>
<linearGradient id="paint0_linear_210_6" x1="164.098" y1="16.2295" x2="164.098" y2="313.77" gradientUnits="userSpaceOnUse">
<stop stop-color="#2EC4B6"/>
<stop offset="1" stop-color="#011627"/>
</linearGradient>
<linearGradient id="paint1_linear_210_6" x1="164.549" y1="52.2951" x2="164.549" y2="277.705" gradientUnits="userSpaceOnUse">
<stop stop-color="#011627"/>
<stop offset="1" stop-opacity="0.56"/>
</linearGradient>
</defs>
</svg>
