<svg width="366" height="366" viewBox="0 0 366 366" fill="none" xmlns="http://www.w3.org/2000/svg">
<circle cx="182" cy="183" r="165" fill="#BEBDBD"/>
<path d="M131.79 58.2088C148.184 55.8496 165.55 73.7511 170.552 98.4524C175.553 123.015 166.523 144.941 150.129 147.439C133.874 149.936 116.369 132.035 111.228 107.334C106.088 82.7712 115.396 60.8454 131.79 58.2088ZM231.126 58.2088C247.659 60.8454 256.828 82.7712 251.966 107.334C246.686 132.035 229.32 149.936 212.926 147.439C196.393 144.941 187.363 123.015 192.503 98.4524C197.505 73.7511 214.871 55.8496 231.126 58.2088ZM57.4617 122.043C73.2999 115.244 94.8342 127.594 106.088 149.104C116.646 171.03 113.034 194.066 97.335 200.865C81.6358 207.665 60.2403 195.453 49.2647 173.666C38.2891 151.879 42.1792 128.704 57.4617 122.043ZM307.538 122.043C322.821 128.704 326.711 151.879 315.735 173.666C304.76 195.453 283.364 207.665 267.665 200.865C251.966 194.066 248.354 171.03 258.912 149.104C270.166 127.594 291.7 115.244 307.538 122.043ZM284.337 271.639C284.892 284.683 274.889 299.115 262.941 304.527C238.073 315.907 208.619 292.315 180.972 292.315C153.324 292.315 123.593 316.878 99.1411 304.527C85.248 297.728 75.6617 279.687 77.4678 264.7C79.9686 244.023 104.837 232.921 119.564 217.795C139.153 198.229 153.047 161.454 180.972 161.454C208.758 161.454 223.485 197.674 242.241 217.795C257.662 234.726 283.364 249.019 284.337 271.639Z" fill="#444444"/>
</svg>
