<svg width="366" height="366" viewBox="0 0 366 366" fill="none" xmlns="http://www.w3.org/2000/svg">
<circle cx="182" cy="183" r="165" fill="url(#paint0_linear_210_6)"/>
<path d="M131.79 58.2088C148.184 55.8496 165.55 73.7511 170.552 98.4524C175.553 123.015 166.523 144.941 150.129 147.439C133.874 149.936 116.369 132.035 111.228 107.334C106.088 82.7712 115.396 60.8454 131.79 58.2088ZM231.126 58.2088C247.659 60.8454 256.828 82.7712 251.966 107.334C246.686 132.035 229.32 149.936 212.926 147.439C196.393 144.941 187.363 123.015 192.503 98.4524C197.505 73.7511 214.871 55.8496 231.126 58.2088ZM57.4617 122.043C73.2999 115.244 94.8342 127.594 106.088 149.104C116.646 171.03 113.034 194.066 97.335 200.865C81.6358 207.665 60.2403 195.453 49.2647 173.666C38.2891 151.879 42.1792 128.704 57.4617 122.043ZM307.538 122.043C322.821 128.704 326.711 151.879 315.735 173.666C304.76 195.453 283.364 207.665 267.665 200.865C251.966 194.066 248.354 171.03 258.912 149.104C270.166 127.594 291.7 115.244 307.538 122.043ZM284.337 271.639C284.892 284.683 274.889 299.115 262.941 304.527C238.073 315.907 208.619 292.315 180.972 292.315C153.324 292.315 123.593 316.878 99.1411 304.527C85.248 297.728 75.6617 279.687 77.4678 264.7C79.9686 244.023 104.837 232.921 119.564 217.795C139.153 198.229 153.047 161.454 180.972 161.454C208.758 161.454 223.485 197.674 242.241 217.795C257.662 234.726 283.364 249.019 284.337 271.639Z" fill="url(#paint1_linear_210_6)" fill-opacity="0.6"/>
<path d="M119.568 298.545H121.682V310.102C121.682 311.295 121.401 312.361 120.838 313.298C120.281 314.23 119.494 314.966 118.477 315.506C117.46 316.04 116.267 316.307 114.898 316.307C113.528 316.307 112.335 316.04 111.318 315.506C110.301 314.966 109.511 314.23 108.949 313.298C108.392 312.361 108.114 311.295 108.114 310.102V298.545H110.227V309.932C110.227 310.784 110.415 311.543 110.79 312.207C111.165 312.866 111.699 313.386 112.392 313.767C113.091 314.142 113.926 314.33 114.898 314.33C115.869 314.33 116.705 314.142 117.403 313.767C118.102 313.386 118.636 312.866 119.006 312.207C119.381 311.543 119.568 310.784 119.568 309.932V298.545ZM125.63 320.909V302.909H127.573V304.989H127.812C127.96 304.761 128.164 304.472 128.425 304.119C128.692 303.761 129.073 303.443 129.567 303.165C130.067 302.881 130.744 302.739 131.596 302.739C132.698 302.739 133.67 303.014 134.511 303.565C135.352 304.116 136.008 304.898 136.479 305.909C136.951 306.92 137.187 308.114 137.187 309.489C137.187 310.875 136.951 312.077 136.479 313.094C136.008 314.105 135.354 314.889 134.519 315.446C133.684 315.997 132.721 316.273 131.63 316.273C130.789 316.273 130.116 316.134 129.61 315.855C129.104 315.571 128.715 315.25 128.442 314.892C128.17 314.528 127.96 314.227 127.812 313.989H127.641V320.909H125.63ZM127.607 309.455C127.607 310.443 127.752 311.315 128.042 312.071C128.332 312.821 128.755 313.409 129.312 313.835C129.869 314.256 130.55 314.466 131.357 314.466C132.198 314.466 132.9 314.244 133.462 313.801C134.031 313.352 134.457 312.75 134.741 311.994C135.031 311.233 135.175 310.386 135.175 309.455C135.175 308.534 135.033 307.705 134.749 306.966C134.471 306.222 134.048 305.634 133.479 305.202C132.917 304.764 132.21 304.545 131.357 304.545C130.539 304.545 129.852 304.753 129.295 305.168C128.738 305.577 128.317 306.151 128.033 306.889C127.749 307.622 127.607 308.477 127.607 309.455ZM142.266 298.545V316H140.255V298.545H142.266ZM151.268 316.273C150.087 316.273 149.05 315.991 148.158 315.429C147.271 314.866 146.578 314.08 146.078 313.068C145.584 312.057 145.337 310.875 145.337 309.523C145.337 308.159 145.584 306.969 146.078 305.952C146.578 304.935 147.271 304.145 148.158 303.582C149.05 303.02 150.087 302.739 151.268 302.739C152.45 302.739 153.484 303.02 154.371 303.582C155.263 304.145 155.956 304.935 156.45 305.952C156.95 306.969 157.2 308.159 157.2 309.523C157.2 310.875 156.95 312.057 156.45 313.068C155.956 314.08 155.263 314.866 154.371 315.429C153.484 315.991 152.45 316.273 151.268 316.273ZM151.268 314.466C152.166 314.466 152.905 314.236 153.484 313.776C154.064 313.315 154.493 312.71 154.771 311.96C155.05 311.21 155.189 310.398 155.189 309.523C155.189 308.648 155.05 307.832 154.771 307.077C154.493 306.321 154.064 305.71 153.484 305.244C152.905 304.778 152.166 304.545 151.268 304.545C150.371 304.545 149.632 304.778 149.053 305.244C148.473 305.71 148.044 306.321 147.766 307.077C147.487 307.832 147.348 308.648 147.348 309.523C147.348 310.398 147.487 311.21 147.766 311.96C148.044 312.71 148.473 313.315 149.053 313.776C149.632 314.236 150.371 314.466 151.268 314.466ZM164.123 316.307C163.293 316.307 162.54 316.151 161.864 315.838C161.188 315.52 160.651 315.062 160.254 314.466C159.856 313.864 159.657 313.136 159.657 312.284C159.657 311.534 159.805 310.926 160.1 310.46C160.396 309.989 160.79 309.619 161.285 309.352C161.779 309.085 162.325 308.886 162.921 308.756C163.523 308.619 164.129 308.511 164.737 308.432C165.532 308.33 166.177 308.253 166.671 308.202C167.171 308.145 167.535 308.051 167.762 307.92C167.995 307.79 168.112 307.562 168.112 307.239V307.17C168.112 306.33 167.881 305.676 167.421 305.21C166.967 304.744 166.276 304.511 165.35 304.511C164.39 304.511 163.637 304.722 163.092 305.142C162.546 305.562 162.163 306.011 161.941 306.489L160.032 305.807C160.373 305.011 160.827 304.392 161.396 303.949C161.969 303.5 162.594 303.187 163.271 303.011C163.952 302.83 164.623 302.739 165.282 302.739C165.702 302.739 166.185 302.79 166.731 302.892C167.282 302.989 167.813 303.19 168.325 303.497C168.842 303.804 169.271 304.267 169.612 304.886C169.952 305.506 170.123 306.335 170.123 307.375V316H168.112V314.227H168.009C167.873 314.511 167.646 314.815 167.327 315.139C167.009 315.463 166.586 315.739 166.058 315.966C165.529 316.193 164.884 316.307 164.123 316.307ZM164.43 314.5C165.225 314.5 165.896 314.344 166.441 314.031C166.992 313.719 167.407 313.315 167.685 312.821C167.969 312.327 168.112 311.807 168.112 311.261V309.42C168.026 309.523 167.839 309.616 167.549 309.702C167.265 309.781 166.935 309.852 166.56 309.915C166.191 309.972 165.83 310.023 165.478 310.068C165.131 310.108 164.85 310.142 164.634 310.17C164.112 310.239 163.623 310.349 163.168 310.503C162.719 310.651 162.356 310.875 162.077 311.176C161.805 311.472 161.668 311.875 161.668 312.386C161.668 313.085 161.927 313.614 162.444 313.972C162.967 314.324 163.629 314.5 164.43 314.5ZM178.737 316.273C177.646 316.273 176.683 315.997 175.848 315.446C175.013 314.889 174.359 314.105 173.888 313.094C173.416 312.077 173.18 310.875 173.18 309.489C173.18 308.114 173.416 306.92 173.888 305.909C174.359 304.898 175.016 304.116 175.857 303.565C176.697 303.014 177.669 302.739 178.771 302.739C179.624 302.739 180.297 302.881 180.791 303.165C181.291 303.443 181.672 303.761 181.933 304.119C182.2 304.472 182.408 304.761 182.555 304.989H182.726V298.545H184.737V316H182.794V313.989H182.555C182.408 314.227 182.197 314.528 181.925 314.892C181.652 315.25 181.263 315.571 180.757 315.855C180.251 316.134 179.578 316.273 178.737 316.273ZM179.01 314.466C179.817 314.466 180.499 314.256 181.055 313.835C181.612 313.409 182.036 312.821 182.325 312.071C182.615 311.315 182.76 310.443 182.76 309.455C182.76 308.477 182.618 307.622 182.334 306.889C182.05 306.151 181.629 305.577 181.072 305.168C180.516 304.753 179.828 304.545 179.01 304.545C178.158 304.545 177.447 304.764 176.879 305.202C176.317 305.634 175.893 306.222 175.609 306.966C175.331 307.705 175.192 308.534 175.192 309.455C175.192 310.386 175.334 311.233 175.618 311.994C175.908 312.75 176.334 313.352 176.896 313.801C177.464 314.244 178.169 314.466 179.01 314.466ZM195.45 320.909V302.909H197.393V304.989H197.632C197.78 304.761 197.984 304.472 198.246 304.119C198.513 303.761 198.893 303.443 199.388 303.165C199.888 302.881 200.564 302.739 201.416 302.739C202.518 302.739 203.49 303.014 204.331 303.565C205.172 304.116 205.828 304.898 206.3 305.909C206.771 306.92 207.007 308.114 207.007 309.489C207.007 310.875 206.771 312.077 206.3 313.094C205.828 314.105 205.175 314.889 204.339 315.446C203.504 315.997 202.541 316.273 201.45 316.273C200.609 316.273 199.936 316.134 199.43 315.855C198.925 315.571 198.536 315.25 198.263 314.892C197.99 314.528 197.78 314.227 197.632 313.989H197.462V320.909H195.45ZM197.428 309.455C197.428 310.443 197.572 311.315 197.862 312.071C198.152 312.821 198.575 313.409 199.132 313.835C199.689 314.256 200.371 314.466 201.178 314.466C202.018 314.466 202.72 314.244 203.283 313.801C203.851 313.352 204.277 312.75 204.561 311.994C204.851 311.233 204.996 310.386 204.996 309.455C204.996 308.534 204.854 307.705 204.57 306.966C204.291 306.222 203.868 305.634 203.3 305.202C202.737 304.764 202.03 304.545 201.178 304.545C200.359 304.545 199.672 304.753 199.115 305.168C198.558 305.577 198.138 306.151 197.854 306.889C197.57 307.622 197.428 308.477 197.428 309.455ZM212.087 308.125V316H210.075V298.545H212.087V304.955H212.257C212.564 304.278 213.024 303.741 213.638 303.344C214.257 302.94 215.081 302.739 216.109 302.739C217.001 302.739 217.783 302.918 218.453 303.276C219.124 303.628 219.643 304.17 220.013 304.903C220.388 305.631 220.575 306.557 220.575 307.682V316H218.564V307.818C218.564 306.778 218.294 305.974 217.754 305.406C217.22 304.832 216.479 304.545 215.53 304.545C214.871 304.545 214.28 304.685 213.757 304.963C213.24 305.241 212.831 305.648 212.53 306.182C212.234 306.716 212.087 307.364 212.087 308.125ZM229.573 316.273C228.391 316.273 227.354 315.991 226.462 315.429C225.576 314.866 224.883 314.08 224.383 313.068C223.888 312.057 223.641 310.875 223.641 309.523C223.641 308.159 223.888 306.969 224.383 305.952C224.883 304.935 225.576 304.145 226.462 303.582C227.354 303.02 228.391 302.739 229.573 302.739C230.755 302.739 231.789 303.02 232.675 303.582C233.567 304.145 234.261 304.935 234.755 305.952C235.255 306.969 235.505 308.159 235.505 309.523C235.505 310.875 235.255 312.057 234.755 313.068C234.261 314.08 233.567 314.866 232.675 315.429C231.789 315.991 230.755 316.273 229.573 316.273ZM229.573 314.466C230.471 314.466 231.21 314.236 231.789 313.776C232.369 313.315 232.798 312.71 233.076 311.96C233.354 311.21 233.494 310.398 233.494 309.523C233.494 308.648 233.354 307.832 233.076 307.077C232.798 306.321 232.369 305.71 231.789 305.244C231.21 304.778 230.471 304.545 229.573 304.545C228.675 304.545 227.937 304.778 227.357 305.244C226.778 305.71 226.349 306.321 226.07 307.077C225.792 307.832 225.653 308.648 225.653 309.523C225.653 310.398 225.792 311.21 226.07 311.96C226.349 312.71 226.778 313.315 227.357 313.776C227.937 314.236 228.675 314.466 229.573 314.466ZM244.268 302.909V304.614H237.484V302.909H244.268ZM239.462 299.773H241.473V312.25C241.473 312.818 241.555 313.244 241.72 313.528C241.891 313.807 242.107 313.994 242.368 314.091C242.635 314.182 242.916 314.227 243.212 314.227C243.433 314.227 243.615 314.216 243.757 314.193C243.899 314.165 244.013 314.142 244.098 314.125L244.507 315.932C244.371 315.983 244.18 316.034 243.936 316.085C243.692 316.142 243.382 316.17 243.007 316.17C242.439 316.17 241.882 316.048 241.337 315.804C240.797 315.56 240.348 315.188 239.99 314.688C239.638 314.188 239.462 313.557 239.462 312.795V299.773ZM252.472 316.273C251.29 316.273 250.253 315.991 249.361 315.429C248.474 314.866 247.781 314.08 247.281 313.068C246.787 312.057 246.54 310.875 246.54 309.523C246.54 308.159 246.787 306.969 247.281 305.952C247.781 304.935 248.474 304.145 249.361 303.582C250.253 303.02 251.29 302.739 252.472 302.739C253.653 302.739 254.688 303.02 255.574 303.582C256.466 304.145 257.159 304.935 257.653 305.952C258.153 306.969 258.403 308.159 258.403 309.523C258.403 310.875 258.153 312.057 257.653 313.068C257.159 314.08 256.466 314.866 255.574 315.429C254.688 315.991 253.653 316.273 252.472 316.273ZM252.472 314.466C253.369 314.466 254.108 314.236 254.688 313.776C255.267 313.315 255.696 312.71 255.974 311.96C256.253 311.21 256.392 310.398 256.392 309.523C256.392 308.648 256.253 307.832 255.974 307.077C255.696 306.321 255.267 305.71 254.688 305.244C254.108 304.778 253.369 304.545 252.472 304.545C251.574 304.545 250.835 304.778 250.256 305.244C249.676 305.71 249.247 306.321 248.969 307.077C248.69 307.832 248.551 308.648 248.551 309.523C248.551 310.398 248.69 311.21 248.969 311.96C249.247 312.71 249.676 313.315 250.256 313.776C250.835 314.236 251.574 314.466 252.472 314.466Z" fill="#FDFFFC"/>
<defs>
<linearGradient id="paint0_linear_210_6" x1="182" y1="18" x2="182" y2="348" gradientUnits="userSpaceOnUse">
<stop stop-color="#2EC4B6"/>
<stop offset="1" stop-color="#011627"/>
</linearGradient>
<linearGradient id="paint1_linear_210_6" x1="182.5" y1="58" x2="182.5" y2="308" gradientUnits="userSpaceOnUse">
<stop stop-color="#011627"/>
<stop offset="1" stop-opacity="0.56"/>
</linearGradient>
</defs>
</svg>
