<svg width="60" height="60" viewBox="0 0 60 60" fill="none" xmlns="http://www.w3.org/2000/svg">
<circle cx="29.836" cy="30" r="27.0492" fill="#FDFFFC"/>
<path d="M21.6048 9.5424C24.2923 9.15566 27.1393 12.0903 27.9592 16.1397C28.7791 20.1663 27.2987 23.7607 24.6112 24.1702C21.9464 24.5797 19.0767 21.6451 18.234 17.5957C17.3913 13.569 18.9173 9.97464 21.6048 9.5424ZM37.8894 9.5424C40.5997 9.97464 42.1029 13.569 41.3058 17.5957C40.4403 21.6451 37.5933 24.5797 34.9058 24.1702C32.1955 23.7607 30.7151 20.1663 31.5578 16.1397C32.3777 12.0903 35.2247 9.15566 37.8894 9.5424ZM9.41984 20.0071C12.0163 18.8924 15.5465 20.9171 17.3913 24.4432C19.1223 28.0376 18.5301 31.814 15.9565 32.9287C13.3828 34.0435 9.87535 32.0415 8.07608 28.4699C6.2768 24.8982 6.91452 21.0991 9.41984 20.0071ZM50.416 20.0071C52.9213 21.0991 53.5591 24.8982 51.7598 28.4699C49.9605 32.0415 46.453 34.0435 43.8794 32.9287C41.3057 31.814 40.7136 28.0376 42.4445 24.4432C44.2894 20.9171 47.8196 18.8924 50.416 20.0071ZM46.6125 44.5309C46.7036 46.6693 45.0637 49.0353 43.105 49.9225C39.0282 51.7879 34.1997 47.9206 29.6674 47.9206C25.135 47.9206 20.261 51.9472 16.2525 49.9225C13.975 48.8078 12.4034 45.8504 12.6995 43.3934C13.1095 40.0038 17.1863 38.1838 19.6006 35.7042C22.8119 32.4965 25.0895 26.4679 29.6674 26.4679C34.2225 26.4679 36.6367 32.4055 39.7115 35.7042C42.2396 38.4796 46.453 40.8228 46.6125 44.5309Z" fill="#2EC4B6"/>
</svg>
