<svg width="34" height="33" viewBox="0 0 34 33" fill="none" xmlns="http://www.w3.org/2000/svg">
<rect x="0.676636" width="33" height="33" rx="10" fill="#2EC4B6" fill-opacity="0.6"/>
<path d="M22.4055 4.91645L20.0397 7.28212L26.3943 13.6362L28.7601 11.2705C29.9821 10.0486 29.9821 8.06905 28.7601 6.84711L26.8342 4.91645C25.6122 3.69452 23.6325 3.69452 22.4104 4.91645H22.4055ZM18.935 8.38675L7.54074 19.785C7.03238 20.2933 6.66088 20.9238 6.45558 21.613L4.72518 27.493C4.60298 27.9084 4.7154 28.3532 5.01847 28.6562C5.32153 28.9593 5.76635 29.0717 6.17695 28.9544L12.0574 27.2241C12.7466 27.0189 13.3772 26.6474 13.8855 26.1391L25.2895 14.7408L18.935 8.38675Z" fill="#FDFFFC"/>
</svg>
