<svg width="34" height="33" viewBox="0 0 34 33" fill="none" xmlns="http://www.w3.org/2000/svg">
<rect x="0.676636" width="33" height="33" rx="10" fill="#2EC4B6" fill-opacity="0.6"/>
<path d="M24.9901 14.1548C24.9901 16.3956 24.2626 18.4657 23.0369 20.1451L29.2188 26.3307C29.8292 26.941 29.8292 27.932 29.2188 28.5423C28.6085 29.1526 27.6172 29.1526 27.0068 28.5423L20.8249 22.3567C19.1451 23.587 17.0747 24.3095 14.8334 24.3095C9.22276 24.3095 4.67664 19.7643 4.67664 14.1548C4.67664 8.54523 9.22276 4 14.8334 4C20.444 4 24.9901 8.54523 24.9901 14.1548ZM14.8334 21.185C15.7568 21.185 16.6711 21.0031 17.5243 20.6498C18.3774 20.2965 19.1525 19.7787 19.8055 19.1259C20.4584 18.4731 20.9764 17.6981 21.3297 16.8451C21.6831 15.9922 21.865 15.078 21.865 14.1548C21.865 13.2315 21.6831 12.3174 21.3297 11.4644C20.9764 10.6115 20.4584 9.83646 19.8055 9.18365C19.1525 8.53083 18.3774 8.01299 17.5243 7.65969C16.6711 7.30638 15.7568 7.12454 14.8334 7.12454C13.91 7.12454 12.9956 7.30638 12.1425 7.65969C11.2894 8.01299 10.5142 8.53083 9.86129 9.18365C9.20835 9.83646 8.69041 10.6115 8.33704 11.4644C7.98367 12.3174 7.80179 13.2315 7.80179 14.1548C7.80179 15.078 7.98367 15.9922 8.33704 16.8451C8.69041 17.6981 9.20835 18.4731 9.86129 19.1259C10.5142 19.7787 11.2894 20.2965 12.1425 20.6498C12.9956 21.0031 13.91 21.185 14.8334 21.185Z" fill="#FDFFFC"/>
</svg>
