<svg width="34" height="33" viewBox="0 0 34 33" fill="none" xmlns="http://www.w3.org/2000/svg">
<rect x="0.676636" width="33" height="33" rx="10" fill="#2EC4B6" fill-opacity="0.6"/>
<path d="M13.2782 4.86426L12.9266 5.5625H8.23914C7.37488 5.5625 6.67664 6.26074 6.67664 7.125C6.67664 7.98926 7.37488 8.6875 8.23914 8.6875H26.9891C27.8534 8.6875 28.5516 7.98926 28.5516 7.125C28.5516 6.26074 27.8534 5.5625 26.9891 5.5625H22.3016L21.9501 4.86426C21.6864 4.33203 21.1444 4 20.5536 4H14.6747C14.0839 4 13.5419 4.33203 13.2782 4.86426ZM26.9891 10.25H8.23914L9.27429 26.8027C9.35242 28.0381 10.3778 29 11.6132 29H23.6151C24.8505 29 25.8759 28.0381 25.954 26.8027L26.9891 10.25Z" fill="#FDFFFC"/>
</svg>
